# xmcd
#
# Track frame offsets:
#	150
#	8335
#	27910
#	40922
#	51810
#	63902
#	84367
#	98142
#	112857
#	124637
#	142352
#	160690
#	170492
#	189067
#	201675
#	216817
#	227722
#
# Disc length: 3305 seconds
#
# Revision: 1
# Processed by: cddbd v1.5.1PL0 Copyright (c) Steve Scherf et al.
# Submitted via: audiograbber 1.83.01
#
DISCID=db0ce711
DTITLE=The Flying Burrito Bros - The Red Album
DYEAR=2004
DGENRE=Country
TTITLE0=Cannonball Rag
TTITLE1=Building Fires
TTITLE2=Wheels
TTITLE3=Diggy Liggy Li
TTITLE4=Close Up The Honky Tonks
TTITLE5=Sin City
TTITLE6=Take A Whiff On Me
TTITLE7=Faded Love
TTITLE8=Easy To Get On
TTITLE9=Bon Soir Blues
TTITLE10=She Thinks I Still Care
TTITLE11=Dim Linght, Thick Smoke
TTITLE12=Devil In Disguise
TTITLE13=Hot Burrito #3
TTITLE14=White Line Fever
TTITLE15=Why Baby Why
TTITLE16=Chuck Berry Medley: Let It Rock/Roll Over Beethoven
EXTD=
EXTT0=
EXTT1=
EXTT2=
EXTT3=
EXTT4=
EXTT5=
EXTT6=
EXTT7=
EXTT8=
EXTT9=
EXTT10=
EXTT11=
EXTT12=
EXTT13=
EXTT14=
EXTT15=
EXTT16=
PLAYORDER=
